<?xml version="1.0" encoding="utf-8"?>
<!-- Generator: Adobe Illustrator 21.1.0, SVG Export Plug-In . SVG Version: 6.00 Build 0)  -->
<svg version="1.1" id="圖層_1" xmlns="http://www.w3.org/2000/svg" xmlns:xlink="http://www.w3.org/1999/xlink" x="0px" y="0px"
	 width="186px" height="49.5px" viewBox="0 0 186 49.5" style="enable-background:new 0 0 186 49.5;" xml:space="preserve">
<style type="text/css">
	.st0{fill:#333;}
</style>
<g>

	<polygon class="st0" points="76.6,1.7 71.7,1.7 71.7,33 87.5,33 87.5,28.1 76.6,28.1 	"/>
	<path class="st0" d="M114.2,6.3c-3.1-3.1-6.8-4.6-11.1-4.6c-4.3,0-8,1.5-11.1,4.6C89,9.3,87.5,13,87.5,17.3c0,4.3,1.6,8,4.6,11
		c3.1,3.1,6.8,4.6,11.1,4.6c4.3,0,8-1.5,11.1-4.6c3-3.1,4.6-6.8,4.6-11C118.8,13,117.3,9.3,114.2,6.3z M110.8,25
		c-2.1,2.1-4.7,3.2-7.7,3.2c-3,0-5.5-1.1-7.6-3.2c-2.1-2.1-3.2-4.7-3.2-7.6c0-3,1.1-5.5,3.2-7.7c2.1-2.1,4.7-3.2,7.6-3.2
		c3,0,5.5,1.1,7.7,3.2c2.1,2.1,3.2,4.7,3.2,7.7C114,20.3,112.9,22.9,110.8,25z"/>
	<path class="st0" d="M181.4,28.4c3.1-3.1,4.6-6.8,4.6-11c0-4.3-1.5-8-4.6-11.1c-3.1-3.1-6.8-4.6-11.1-4.6c-4.3,0-8,1.5-11.1,4.6
		c-3.1,3.1-4.6,6.8-4.6,11.1c0,4.3,1.6,8,4.6,11c3.1,3.1,6.8,4.6,11.1,4.6C174.6,33,178.4,31.4,181.4,28.4z M159.5,17.3
		c0-3,1.1-5.5,3.2-7.7c2.1-2.1,4.7-3.2,7.6-3.2c3,0,5.5,1.1,7.7,3.2c2.1,2.1,3.2,4.7,3.2,7.7c0,3-1.1,5.5-3.2,7.6
		c-2.1,2.1-4.7,3.2-7.7,3.2c-3,0-5.5-1.1-7.6-3.2C160.6,22.9,159.5,20.3,159.5,17.3z"/>
	<path class="st0" d="M147.7,28.4c1.6-1.6,2.8-3.3,3.5-5.3c0.2-0.6,1.1-2.8,1.1-5.8c0-1-0.1-1.8-0.2-2.4c-5.2,0-10.3,0-15.5,0
		c0,1.6,0,3.2,0,4.8h10.6c-0.4,2-1.4,3.7-2.9,5.2c-2.1,2.1-4.7,3.2-7.7,3.2c-3,0-5.5-1.1-7.6-3.2c-2.1-2.1-3.2-4.7-3.2-7.6
		c0-3,1.1-5.5,3.2-7.7c2.1-2.1,4.7-3.2,7.6-3.2c2.2,0,4.2,0.6,6,1.8l3.5-3.5c-2.7-2.1-5.9-3.2-9.4-3.2c-4.3,0-8,1.5-11.1,4.6
		c-3.1,3.1-4.6,6.8-4.6,11.1c0,4.3,1.6,8,4.6,11c3.1,3.1,6.8,4.6,11.1,4.6C140.9,33,144.6,31.4,147.7,28.4z"/>
</g>
</svg>
